HIERARCHY
ROOT Root
{
  OFFSET 0.0 0.0 0.0
  CHANNELS 6 Xposition Yposition Zposition Zrotation Yrotation Xrotation
  JOINT Hips
  {
    OFFSET 0.0 100.0 0.0
    CHANNELS 6 Xposition Yposition Zposition Zrotation Yrotation Xrotation
    JOINT Spine1
    {
      OFFSET 5.003913 -0.037094 -0.013727
      CHANNELS 3 Zrotation Yrotation Xrotation
      JOINT Spine2
      {
        OFFSET 7.125363 -1e-06 0.0
        CHANNELS 3 Zrotation Yrotation Xrotation
        JOINT Chest
        {
          OFFSET 7.594027 1e-06 0.0
          CHANNELS 3 Zrotation Yrotation Xrotation
          JOINT Neck1
          {
            OFFSET 26.313086 -0.460272 -0.181672
            CHANNELS 3 Zrotation Yrotation Xrotation
            JOINT Neck2
            {
              OFFSET 8.045911 0.0 0.0
              CHANNELS 3 Zrotation Yrotation Xrotation
              JOINT Head
              {
                OFFSET 6.432774 0.0 0.0
                CHANNELS 3 Zrotation Yrotation Xrotation
                JOINT HeadEnd
                {
                  OFFSET 16.169773 0.06451 0.00362
                  CHANNELS 3 Zrotation Yrotation Xrotation
                }
                JOINT Jaw
                {
                  OFFSET 0.108741 3.12938 0.002639
                  CHANNELS 3 Zrotation Yrotation Xrotation
                }
                JOINT LeftEye
                {
                  OFFSET 4.45173 8.166359 3.206392
                  CHANNELS 3 Zrotation Yrotation Xrotation
                }
                JOINT RightEye
                {
                  OFFSET 4.436895 8.135758 -3.222429
                  CHANNELS 3 Zrotation Yrotation Xrotation
                }
              }
            }
          }
          JOINT LeftShoulder
          {
            OFFSET 23.218927 5.195579 1.621656
            CHANNELS 3 Zrotation Yrotation Xrotation
            JOINT LeftArm
            {
              OFFSET 15.902118 2e-06 -2e-06
              CHANNELS 3 Zrotation Yrotation Xrotation
              JOINT LeftForeArm
              {
                OFFSET 28.739307 0.0 -1e-06
                CHANNELS 3 Zrotation Yrotation Xrotation
                JOINT LeftHand
                {
                  OFFSET 27.093981 -4e-06 0.0
                  CHANNELS 3 Zrotation Yrotation Xrotation
                  JOINT LeftHandThumb1
                  {
                    OFFSET 2.276781 3.380274 0.83384
                    CHANNELS 3 Zrotation Yrotation Xrotation
                    JOINT LeftHandThumb2
                    {
                      OFFSET 4.705309 -1e-06 -1e-06
                      CHANNELS 3 Zrotation Yrotation Xrotation
                      JOINT LeftHandThumb3
                      {
                        OFFSET 2.798515 0.0 3e-06
                        CHANNELS 3 Zrotation Yrotation Xrotation
                        JOINT LeftHandThumbEnd
                        {
                          OFFSET 3.180793 4e-06 -4e-06
                          CHANNELS 3 Zrotation Yrotation Xrotation
                        }
                      }
                    }
                  }
                  JOINT LeftHandIndex1
                  {
                    OFFSET 3.247786 2.352677 0.137192
                    CHANNELS 3 Zrotation Yrotation Xrotation
                    JOINT LeftHandIndex2
                    {
                      OFFSET 6.367095 1e-06 0.0
                      CHANNELS 3 Zrotation Yrotation Xrotation
                      JOINT LeftHandIndex3
                      {
                        OFFSET 3.662364 0.0 0.0
                        CHANNELS 3 Zrotation Yrotation Xrotation
                        JOINT LeftHandIndex4
                        {
                          OFFSET 2.329242 4e-06 -4e-06
                          CHANNELS 3 Zrotation Yrotation Xrotation
                          JOINT LeftHandIndexEnd
                          {
                            OFFSET 2.767823 1e-06 0.0
                            CHANNELS 3 Zrotation Yrotation Xrotation
                          }
                        }
                      }
                    }
                  }
                  JOINT LeftHandMiddle1
                  {
                    OFFSET 3.163612 0.945023 -0.406112
                    CHANNELS 3 Zrotation Yrotation Xrotation
                    JOINT LeftHandMiddle2
                    {
                      OFFSET 6.276789 3e-06 0.0
                      CHANNELS 3 Zrotation Yrotation Xrotation
                      JOINT LeftHandMiddle3
                      {
                        OFFSET 4.35652 -1e-06 4e-06
                        CHANNELS 3 Zrotation Yrotation Xrotation
                        JOINT LeftHandMiddle4
                        {
                          OFFSET 2.996877 0.0 8e-06
                          CHANNELS 3 Zrotation Yrotation Xrotation
                          JOINT LeftHandMiddleEnd
                          {
                            OFFSET 2.323256 3e-06 -4e-06
                            CHANNELS 3 Zrotation Yrotation Xrotation
                          }
                        }
                      }
                    }
                  }
                  JOINT LeftHandRing1
                  {
                    OFFSET 2.882606 -0.309162 0.107445
                    CHANNELS 3 Zrotation Yrotation Xrotation
                    JOINT LeftHandRing2
                    {
                      OFFSET 6.033198 0.0 4e-06
                      CHANNELS 3 Zrotation Yrotation Xrotation
                      JOINT LeftHandRing3
                      {
                        OFFSET 4.350578 3e-06 0.0
                        CHANNELS 3 Zrotation Yrotation Xrotation
                        JOINT LeftHandRing4
                        {
                          OFFSET 2.651321 2e-06 -7e-06
                          CHANNELS 3 Zrotation Yrotation Xrotation
                          JOINT LeftHandRingEnd
                          {
                            OFFSET 1.937663 1e-06 -4e-06
                            CHANNELS 3 Zrotation Yrotation Xrotation
                          }
                        }
                      }
                    }
                  }
                  JOINT LeftHandPinky1
                  {
                    OFFSET 2.865315 -1.525436 0.575687
                    CHANNELS 3 Zrotation Yrotation Xrotation
                    JOINT LeftHandPinky2
                    {
                      OFFSET 5.54936 1e-06 -8e-06
                      CHANNELS 3 Zrotation Yrotation Xrotation
                      JOINT LeftHandPinky3
                      {
                        OFFSET 3.070974 0.0 -4e-06
                        CHANNELS 3 Zrotation Yrotation Xrotation
                        JOINT LeftHandPinky4
                        {
                          OFFSET 1.549672 1e-06 0.0
                          CHANNELS 3 Zrotation Yrotation Xrotation
                          JOINT LeftHandPinkyEnd
                          {
                            OFFSET 1.952123 0.0 0.0
                            CHANNELS 3 Zrotation Yrotation Xrotation
                          }
                        }
                      }
                    }
                  }
                }
              }
            }
          }
          JOINT RightShoulder
          {
            OFFSET 23.161716 5.296122 -1.380114
            CHANNELS 3 Zrotation Yrotation Xrotation
            JOINT RightArm
            {
              OFFSET -16.027195 -2e-06 1.1e-05
              CHANNELS 3 Zrotation Yrotation Xrotation
              JOINT RightForeArm
              {
                OFFSET -28.736639 4e-06 2e-06
                CHANNELS 3 Zrotation Yrotation Xrotation
                JOINT RightHand
                {
                  OFFSET -27.133619 6e-06 0.0
                  CHANNELS 3 Zrotation Yrotation Xrotation
                  JOINT RightHandThumb1
                  {
                    OFFSET -2.274328 -3.351035 -0.83067
                    CHANNELS 3 Zrotation Yrotation Xrotation
                    JOINT RightHandThumb2
                    {
                      OFFSET -4.703594 -3e-06 2e-06
                      CHANNELS 3 Zrotation Yrotation Xrotation
                      JOINT RightHandThumb3
                      {
                        OFFSET -2.794935 -4e-06 -3e-06
                        CHANNELS 3 Zrotation Yrotation Xrotation
                        JOINT RightHandThumbEnd
                        {
                          OFFSET -3.183852 4e-06 1e-06
                          CHANNELS 3 Zrotation Yrotation Xrotation
                        }
                      }
                    }
                  }
                  JOINT RightHandIndex1
                  {
                    OFFSET -3.253496 -2.33755 -0.127667
                    CHANNELS 3 Zrotation Yrotation Xrotation
                    JOINT RightHandIndex2
                    {
                      OFFSET -6.344434 0.0 0.0
                      CHANNELS 3 Zrotation Yrotation Xrotation
                      JOINT RightHandIndex3
                      {
                        OFFSET -3.654871 0.0 -8e-06
                        CHANNELS 3 Zrotation Yrotation Xrotation
                        JOINT RightHandIndex4
                        {
                          OFFSET -2.327586 -1e-06 0.0
                          CHANNELS 3 Zrotation Yrotation Xrotation
                          JOINT RightHandIndexEnd
                          {
                            OFFSET -2.770001 3e-06 8e-06
                            CHANNELS 3 Zrotation Yrotation Xrotation
                          }
                        }
                      }
                    }
                  }
                  JOINT RightHandMiddle1
                  {
                    OFFSET -3.168223 -0.944764 0.411762
                    CHANNELS 3 Zrotation Yrotation Xrotation
                    JOINT RightHandMiddle2
                    {
                      OFFSET -6.266691 -1e-06 -4e-06
                      CHANNELS 3 Zrotation Yrotation Xrotation
                      JOINT RightHandMiddle3
                      {
                        OFFSET -4.348901 0.0 0.0
                        CHANNELS 3 Zrotation Yrotation Xrotation
                        JOINT RightHandMiddle4
                        {
                          OFFSET -3.00024 2e-06 -4e-06
                          CHANNELS 3 Zrotation Yrotation Xrotation
                          JOINT RightHandMiddleEnd
                          {
                            OFFSET -2.321477 -4e-06 -4e-06
                            CHANNELS 3 Zrotation Yrotation Xrotation
                          }
                        }
                      }
                    }
                  }
                  JOINT RightHandRing1
                  {
                    OFFSET -2.885654 0.293261 -0.119232
                    CHANNELS 3 Zrotation Yrotation Xrotation
                    JOINT RightHandRing2
                    {
                      OFFSET -6.032835 -1e-06 -4e-06
                      CHANNELS 3 Zrotation Yrotation Xrotation
                      JOINT RightHandRing3
                      {
                        OFFSET -4.33881 0.0 -4e-06
                        CHANNELS 3 Zrotation Yrotation Xrotation
                        JOINT RightHandRing4
                        {
                          OFFSET -2.654903 -4e-06 -4e-06
                          CHANNELS 3 Zrotation Yrotation Xrotation
                          JOINT RightHandRingEnd
                          {
                            OFFSET -1.935122 0.0 4e-06
                            CHANNELS 3 Zrotation Yrotation Xrotation
                          }
                        }
                      }
                    }
                  }
                  JOINT RightHandPinky1
                  {
                    OFFSET -2.866241 1.503904 -0.60527
                    CHANNELS 3 Zrotation Yrotation Xrotation
                    JOINT RightHandPinky2
                    {
                      OFFSET -5.553177 -2e-06 0.0
                      CHANNELS 3 Zrotation Yrotation Xrotation
                      JOINT RightHandPinky3
                      {
                        OFFSET -3.062664 -1e-06 -4e-06
                        CHANNELS 3 Zrotation Yrotation Xrotation
                        JOINT RightHandPinky4
                        {
                          OFFSET -1.546529 2e-06 4e-06
                          CHANNELS 3 Zrotation Yrotation Xrotation
                          JOINT RightHandPinkyEnd
                          {
                            OFFSET -1.952341 0.0 -4e-06
                            CHANNELS 3 Zrotation Yrotation Xrotation
                          }
                        }
                      }
                    }
                  }
                }
              }
            }
          }
        }
      }
    }
    JOINT LeftLeg
    {
      OFFSET -8.443107 2.567604 10.043214
      CHANNELS 3 Zrotation Yrotation Xrotation
      JOINT LeftShin
      {
        OFFSET 43.229198 1e-06 -1e-06
        CHANNELS 3 Zrotation Yrotation Xrotation
        JOINT LeftFoot
        {
          OFFSET 42.298611 1e-06 1e-06
          CHANNELS 3 Zrotation Yrotation Xrotation
          JOINT LeftToeBase
          {
            OFFSET 14.165858 1e-06 0.0
            CHANNELS 3 Zrotation Yrotation Xrotation
            JOINT LeftToeEnd
            {
              OFFSET 6.7141 -0.234461 0.0
              CHANNELS 3 Zrotation Yrotation Xrotation
            }
          }
        }
      }
    }
    JOINT RightLeg
    {
      OFFSET -8.303923 2.592729 -10.047278
      CHANNELS 3 Zrotation Yrotation Xrotation
      JOINT RightShin
      {
        OFFSET -43.369682 0.0 1e-06
        CHANNELS 3 Zrotation Yrotation Xrotation
        JOINT RightFoot
        {
          OFFSET -42.260784 4e-06 2e-06
          CHANNELS 3 Zrotation Yrotation Xrotation
          JOINT RightToeBase
          {
            OFFSET -14.222245 -2e-06 -1e-06
            CHANNELS 3 Zrotation Yrotation Xrotation
            JOINT RightToeEnd
            {
              OFFSET -6.660062 0.232574 -2e-06
              CHANNELS 3 Zrotation Yrotation Xrotation
            }
          }
        }
      }
    }
  }
}
MOTION
Frames: 4
Frame Time: 0.03333333333333333
0.0 0.0 0.0 0.0 -0.0 0.0 -1.065672 48.546494 6.31616 91.779411 -65.175659 88.280487 9.546168 -1.024477 -0.883258 -5.151764 -0.964228 -0.20159 17.371614 0.23422 -1.619296 15.186172 0.093833 3.746828 -2.8496 -0.109478 1.642593 -30.322765 2.326628 0.437169 7e-06 0.0 -0.0 -0.157749 -0.032424 0.021871 -0.136391 0.036278 0.025347 -0.150381 -0.100281 0.01436 -45.698818 -63.341084 47.658634 93.876442 0.401496 -24.455502 7.392138 -0.282747 -0.023388 54.251842 75.321747 55.524017 17.636627 -26.322737 52.411198 -19.466661 -14.395597 29.410389 -1e-06 -8.774821 -2e-06 16.154133 -17.831678 6.3329 -0.609777 -1.795653 -3.889328 -4.807089 -11.046812 -2.93785 3e-06 -20.976019 0.0 -5.019971 -25.03356 -4.031879 6e-06 0.0 0.0 -10.634535 -5.686971 -3.565587 10.573274 -17.922951 -3.113901 2e-06 -13.821213 1e-06 -0.501779 -31.181505 -4.027015 -10.165943 -58.67168 6.748265 -13.982714 -7.150198 -2.875042 13.772731 -8.401493 -3.218242 0.347731 -34.211559 0.771656 -0.96303 -17.733372 2.62102 0.0 -2e-06 0.0 -17.34642 -20.095221 -4.20178 21.757561 -1.638374 3.866429 1e-06 -6.338824 1e-06 -1.69759 -22.591747 -6.194006 -0.0 -4e-06 -2e-06 146.55043 -67.66259 33.790886 103.426033 0.99465 -23.138201 2.253242 -0.837059 -0.012763 64.399178 81.416496 61.45583 22.182112 -20.375898 49.933327 -16.701815 -16.743526 28.476534 -3e-06 -12.690601 -0.0 16.336178 -17.509117 2.660257 -0.105919 -1.513857 -4.275884 -5.039041 -5.612871 -2.953556 4e-06 -11.020527 -2e-06 -6.111298 -15.895336 -3.840471 -0.0 -1e-06 0.0 -10.283371 -5.680289 -4.341839 11.028296 -11.302407 -2.372634 -1.384269 -14.238586 -6.320122 -0.625438 -26.924196 -3.827603 -4.338987 -49.020191 -4.24222 -13.708523 -7.363477 -3.72094 18.14115 -14.052739 -3.242675 6e-06 -18.78727 -2e-06 -0.429713 -8.456045 2.555504 0.0 2e-06 0.0 -15.923536 -20.094484 -5.473584 30.419214 -7.190826 1.735926 4e-06 -8.162927 -1e-06 -1.861901 -22.861471 -6.167943 -1e-06 -2e-06 -1e-06 111.543793 -9.289519 2.387379 113.740814 -0.409437 0.348438 -85.276413 10.785131 0.402899 -29.983007 1.878091 1.48279 -1.0 0.0 0.0 -67.883377 -2.179918 3.315134 116.258522 0.279793 0.174846 -97.555626 3.019928 1.179149 -39.921459 1.018835 1.177302 -0.999999 0.0 -0.0 
0.0 0.0 0.0 0.0 -0.0 0.0 -1.007174 48.536243 6.571894 91.371017 -65.275475 88.582489 9.44993 -0.958496 -0.838324 -5.235325 -0.926475 -0.147372 17.448387 0.266524 -1.499151 15.220712 0.10695 3.620596 -2.851548 -0.149426 1.64966 -30.250256 2.437608 0.406515 6e-06 -0.0 -0.0 -0.164529 -0.067113 0.030224 -0.09989 -0.007929 0.042393 -0.117804 -0.123157 0.010477 -45.825184 -63.379238 48.071194 94.194611 0.612071 -25.08831 7.150498 -0.284608 -0.025381 56.305954 74.633324 57.220055 17.636633 -26.322737 52.411194 -19.466661 -14.395596 29.410389 -2e-06 -8.774821 -2e-06 16.161366 -17.853622 6.333882 -0.609776 -1.795654 -3.889327 -4.807087 -11.046809 -2.93785 4e-06 -20.976019 1e-06 -5.01997 -25.033556 -4.031878 6e-06 -0.0 -0.0 -10.634533 -5.68697 -3.565587 10.573272 -17.922951 -3.1139 3e-06 -13.821213 2e-06 -0.501778 -31.181505 -4.027013 -10.0806 -58.772324 6.706508 -13.982713 -7.150198 -2.875042 13.772728 -8.401493 -3.21824 0.347733 -34.211555 0.771656 -0.963029 -17.733372 2.621021 -0.0 0.0 0.0 -17.346416 -20.095217 -4.20178 21.757555 -1.638376 3.866428 1e-06 -6.338823 1e-06 -1.697588 -22.591745 -6.194005 0.0 -4e-06 -2e-06 146.422607 -67.702034 34.139717 103.377625 1.006169 -23.333097 2.16169 -0.81511 -0.010213 64.048386 80.860512 60.877075 22.182117 -20.375898 49.933319 -16.701815 -16.743528 28.476528 -2e-06 -12.690601 -1e-06 16.325294 -17.429228 2.658201 -0.105919 -1.513856 -4.275881 -5.03904 -5.612872 -2.953557 4e-06 -11.020521 -2e-06 -6.111297 -15.895332 -3.840469 -1e-06 -2e-06 0.0 -10.283369 -5.680287 -4.341839 11.028292 -11.302402 -2.372632 -1.384268 -14.238581 -6.32012 -0.625438 -26.924189 -3.8276 -4.304669 -49.082615 -4.159486 -13.708522 -7.363475 -3.720939 18.141146 -14.052739 -3.242673 6e-06 -18.787264 -1e-06 -0.429712 -8.456045 2.555503 0.0 1e-06 0.0 -15.923532 -20.094481 -5.473584 30.419201 -7.190823 1.735925 1e-06 -8.162921 1e-06 -1.861902 -22.861467 -6.167942 -1e-06 -3e-06 -0.0 111.73362 -9.40413 2.38155 113.463928 -0.458029 0.337748 -85.124504 10.779555 0.548737 -29.861864 1.910908 1.425353 -0.999999 0.0 0.0 -67.644981 -2.038157 3.171892 115.857361 0.243308 0.147424 -97.239655 3.020195 1.1518 -39.469109 1.011126 1.193251 -0.999999 -0.0 -0.0 
0.0 0.0 0.0 0.0 -0.0 0.0 -0.960273 48.534794 6.815222 91.149246 -65.32489 88.775269 9.352317 -0.921153 -0.801739 -5.321814 -0.88583 -0.08007 17.547386 0.278227 -1.43967 15.302774 0.175477 3.491139 -2.861253 -0.205409 1.644997 -30.270685 2.43515 0.387793 6e-06 -0.0 -0.0 -0.16414 -0.089033 0.035729 -0.117887 -0.03487 0.044356 -0.129019 -0.138658 0.01499 -45.604816 -63.405556 48.056976 94.385529 0.759292 -25.178282 7.00708 -0.305816 -0.025052 56.574566 74.394241 57.13913 17.636625 -26.322741 52.411213 -19.466663 -14.395598 29.410395 -2e-06 -8.774821 -1e-06 16.180408 -17.849075 6.278727 -0.609776 -1.795654 -3.889328 -4.807088 -11.046811 -2.93785 4e-06 -20.976021 -0.0 -5.01997 -25.03356 -4.03188 6e-06 0.0 0.0 -10.634535 -5.686972 -3.565588 10.573275 -17.922953 -3.113901 3e-06 -13.821211 1e-06 -0.501777 -31.181505 -4.027016 -9.955844 -58.809944 6.627233 -13.982714 -7.150198 -2.875042 13.772729 -8.401493 -3.218243 0.347733 -34.211555 0.771656 -0.963029 -17.733372 2.621021 -0.0 0.0 -0.0 -17.346416 -20.095217 -4.201783 21.757559 -1.638376 3.866427 1e-06 -6.338825 1e-06 -1.697589 -22.591743 -6.194006 -0.0 -5e-06 -2e-06 146.67337 -67.746307 34.113346 103.14209 0.99054 -23.463255 2.147604 -0.838431 -0.009101 64.415199 80.563202 61.412239 22.182117 -20.375898 49.933327 -16.701818 -16.74353 28.476532 -3e-06 -12.690604 0.0 16.32091 -17.329992 2.671412 -0.105919 -1.513856 -4.275882 -5.039042 -5.612873 -2.953557 4e-06 -11.020525 -2e-06 -6.111299 -15.895334 -3.84047 -0.0 -1e-06 -0.0 -10.283372 -5.680288 -4.341839 11.028296 -11.302406 -2.372633 -1.384269 -14.238585 -6.320121 -0.625439 -26.924189 -3.827601 -4.259899 -49.065849 -4.113002 -13.708526 -7.363477 -3.720939 18.141151 -14.05274 -3.242674 6e-06 -18.78727 -1e-06 -0.429711 -8.456047 2.555504 0.0 1e-06 0.0 -15.923536 -20.094484 -5.473584 30.419218 -7.190826 1.735927 4e-06 -8.162927 -2e-06 -1.861904 -22.861473 -6.167942 -0.0 -3e-06 -1e-06 111.985153 -9.438562 2.333856 113.193916 -0.491343 0.339555 -85.190788 10.692912 0.557913 -29.968954 1.926619 1.401615 -0.999999 0.0 -0.0 -67.359009 -1.951162 3.131886 115.509415 0.228215 0.154661 -97.141991 3.000595 1.024873 -39.268429 1.003717 1.203802 -1.000003 -0.0 0.0 
0.0 0.0 0.0 0.0 -0.0 0.0 -0.93183 48.531288 6.993594 90.943039 -65.397316 89.004807 9.257005 -0.894737 -0.776299 -5.395353 -0.865027 -0.041233 17.586542 0.341887 -1.424296 15.348381 0.220971 3.389751 -2.866957 -0.247299 1.629261 -30.368685 2.419743 0.385437 5e-06 -0.0 -0.0 -0.162327 -0.101662 0.038446 -0.159283 -0.048288 0.03595 -0.16086 -0.150813 0.026288 -45.338211 -63.430931 47.949627 94.512756 0.851129 -25.231255 6.946117 -0.33885 -0.032161 56.683758 74.291382 57.228886 17.636621 -26.322725 52.411194 -19.46666 -14.395597 29.410385 -0.0 -8.77482 -2e-06 16.171507 -17.835205 6.249363 -0.609776 -1.795653 -3.889328 -4.807087 -11.046807 -2.93785 5e-06 -20.976011 -2e-06 -5.019969 -25.033552 -4.031881 6e-06 -0.0 -0.0 -10.634533 -5.68697 -3.565587 10.573272 -17.922947 -3.113902 3e-06 -13.821204 1e-06 -0.501776 -31.181488 -4.027017 -9.907844 -58.853413 6.588015 -13.982712 -7.150197 -2.875042 13.772728 -8.401489 -3.218241 0.347734 -34.211544 0.771653 -0.963028 -17.733366 2.621019 -0.0 -1e-06 -0.0 -17.346413 -20.095213 -4.201783 21.757555 -1.638375 3.866427 1e-06 -6.338823 1e-06 -1.697588 -22.591742 -6.194006 -0.0 -4e-06 -2e-06 146.975998 -67.755867 33.939304 102.925613 0.835649 -23.531326 2.20917 -0.820568 -0.009486 64.495789 80.461952 61.787579 22.182106 -20.375887 49.933304 -16.701809 -16.743526 28.476522 -3e-06 -12.690599 -1e-06 16.351948 -17.261633 2.69472 -0.105919 -1.513855 -4.275881 -5.03904 -5.61287 -2.953556 4e-06 -11.020519 -1e-06 -6.111296 -15.895328 -3.84047 -1e-06 -3e-06 0.0 -10.283367 -5.680285 -4.341836 11.028291 -11.302402 -2.372633 -1.384269 -14.238574 -6.320119 -0.625438 -26.924179 -3.8276 -4.218569 -49.096806 -4.055098 -13.708522 -7.363473 -3.720938 18.141146 -14.052736 -3.242673 7e-06 -18.787262 -2e-06 -0.429712 -8.456043 2.555503 0.0 1e-06 0.0 -15.923534 -20.094479 -5.473583 30.419207 -7.190823 1.735928 2e-06 -8.162921 -1e-06 -1.861902 -22.861464 -6.16794 -1e-06 -2e-06 -1e-06 112.121307 -9.42427 2.356466 113.021454 -0.510677 0.34054 -85.437645 10.636505 0.50766 -30.25708 1.931398 1.397289 -0.999998 -0.0 -0.0 -67.169128 -1.913408 3.110722 115.268501 0.258087 0.168835 -97.195473 2.935318 0.858314 -39.295029 1.001029 1.209435 -1.000001 0.0 -0.0 
